<svg width="64" height="64" viewBox="0 0 64 64" fill="none" xmlns="http://www.w3.org/2000/svg">
  <!-- Bookshelf frame -->
  <rect x="8" y="12" width="48" height="4" fill="#8B5CF6" rx="1"/>
  <rect x="8" y="28" width="48" height="4" fill="#8B5CF6" rx="1"/>
  <rect x="8" y="44" width="48" height="4" fill="#8B5CF6" rx="1"/>
  
  <!-- Vertical supports -->
  <rect x="8" y="12" width="3" height="40" fill="#7C3AED" rx="1"/>
  <rect x="53" y="12" width="3" height="40" fill="#7C3AED" rx="1"/>
  
  <!-- Books on top shelf -->
  <rect x="14" y="8" width="6" height="8" fill="#EC4899" rx="0.5"/>
  <rect x="22" y="6" width="5" height="10" fill="#F59E0B" rx="0.5"/>
  <rect x="29" y="7" width="6" height="9" fill="#10B981" rx="0.5"/>
  <rect x="37" y="5" width="5" height="11" fill="#3B82F6" rx="0.5"/>
  <rect x="44" y="8" width="6" height="8" fill="#8B5CF6" rx="0.5"/>
  
  <!-- Books on middle shelf -->
  <rect x="14" y="24" width="5" height="8" fill="#EF4444" rx="0.5"/>
  <rect x="21" y="22" width="6" height="10" fill="#F97316" rx="0.5"/>
  <rect x="29" y="24" width="5" height="8" fill="#84CC16" rx="0.5"/>
  <rect x="36" y="23" width="6" height="9" fill="#06B6D4" rx="0.5"/>
  <rect x="44" y="25" width="5" height="7" fill="#A855F7" rx="0.5"/>
  
  <!-- Books on bottom shelf -->
  <rect x="14" y="40" width="6" height="8" fill="#DC2626" rx="0.5"/>
  <rect x="22" y="38" width="5" height="10" fill="#EA580C" rx="0.5"/>
  <rect x="29" y="40" width="6" height="8" fill="#16A34A" rx="0.5"/>
  <rect x="37" y="39" width="5" height="9" fill="#0891B2" rx="0.5"/>
  <rect x="44" y="41" width="6" height="7" fill="#9333EA" rx="0.5"/>
  
  <!-- Book spines/details -->
  <line x1="17" y1="8" x2="17" y2="16" stroke="#BE185D" stroke-width="0.5"/>
  <line x1="24.5" y1="6" x2="24.5" y2="16" stroke="#D97706" stroke-width="0.5"/>
  <line x1="32" y1="7" x2="32" y2="16" stroke="#059669" stroke-width="0.5"/>
  <line x1="39.5" y1="5" x2="39.5" y2="16" stroke="#2563EB" stroke-width="0.5"/>
  <line x1="47" y1="8" x2="47" y2="16" stroke="#7C3AED" stroke-width="0.5"/>
  
  <line x1="16.5" y1="24" x2="16.5" y2="32" stroke="#B91C1C" stroke-width="0.5"/>
  <line x1="24" y1="22" x2="24" y2="32" stroke="#C2410C" stroke-width="0.5"/>
  <line x1="31.5" y1="24" x2="31.5" y2="32" stroke="#15803D" stroke-width="0.5"/>
  <line x1="39" y1="23" x2="39" y2="32" stroke="#0E7490" stroke-width="0.5"/>
  <line x1="46.5" y1="25" x2="46.5" y2="32" stroke="#7E22CE" stroke-width="0.5"/>
  
  <line x1="17" y1="40" x2="17" y2="48" stroke="#991B1B" stroke-width="0.5"/>
  <line x1="24.5" y1="38" x2="24.5" y2="48" stroke="#9A3412" stroke-width="0.5"/>
  <line x1="32" y1="40" x2="32" y2="48" stroke="#166534" stroke-width="0.5"/>
  <line x1="39.5" y1="39" x2="39.5" y2="48" stroke="#155E75" stroke-width="0.5"/>
  <line x1="47" y1="41" x2="47" y2="48" stroke="#6B21A8" stroke-width="0.5"/>
</svg>

