<svg width="64" height="64" viewBox="0 0 64 64" fill="none" xmlns="http://www.w3.org/2000/svg">
  <!-- Simple, clean bookshelf icon -->
  
  <!-- Shelf structure -->
  <rect x="10" y="14" width="44" height="3" fill="#8B5CF6" rx="1.5"/>
  <rect x="10" y="30" width="44" height="3" fill="#8B5CF6" rx="1.5"/>
  <rect x="10" y="46" width="44" height="3" fill="#8B5CF6" rx="1.5"/>
  
  <!-- Side supports -->
  <rect x="10" y="14" width="3" height="35" fill="#7C3AED" rx="1.5"/>
  <rect x="51" y="14" width="3" height="35" fill="#7C3AED" rx="1.5"/>
  
  <!-- Books - Top shelf -->
  <rect x="16" y="10" width="5" height="7" fill="#EC4899" rx="0.5"/>
  <rect x="23" y="8" width="4" height="9" fill="#F59E0B" rx="0.5"/>
  <rect x="29" y="9" width="5" height="8" fill="#10B981" rx="0.5"/>
  <rect x="36" y="7" width="4" height="10" fill="#3B82F6" rx="0.5"/>
  <rect x="42" y="10" width="5" height="7" fill="#8B5CF6" rx="0.5"/>
  
  <!-- Books - Middle shelf -->
  <rect x="16" y="26" width="4" height="7" fill="#EF4444" rx="0.5"/>
  <rect x="22" y="24" width="5" height="9" fill="#F97316" rx="0.5"/>
  <rect x="29" y="26" width="4" height="7" fill="#84CC16" rx="0.5"/>
  <rect x="35" y="25" width="5" height="8" fill="#06B6D4" rx="0.5"/>
  <rect x="42" y="27" width="4" height="6" fill="#A855F7" rx="0.5"/>
  
  <!-- Books - Bottom shelf -->
  <rect x="16" y="42" width="5" height="7" fill="#DC2626" rx="0.5"/>
  <rect x="23" y="40" width="4" height="9" fill="#EA580C" rx="0.5"/>
  <rect x="29" y="42" width="5" height="7" fill="#16A34A" rx="0.5"/>
  <rect x="36" y="41" width="4" height="8" fill="#0891B2" rx="0.5"/>
  <rect x="42" y="43" width="5" height="6" fill="#9333EA" rx="0.5"/>
</svg>

